<svg width="40" height="40" viewBox="0 0 40 40" fill="none" xmlns="http://www.w3.org/2000/svg">
<path d="M27.5 17.4219H12.5C12.3281 17.4219 12.1875 17.5625 12.1875 17.7344V33.4375C12.1875 33.6094 12.3281 33.75 12.5 33.75H27.5C27.6719 33.75 27.8125 33.6094 27.8125 33.4375V17.7344C27.8125 17.5625 27.6719 17.4219 27.5 17.4219ZM14.6875 19.9219H25.3125V24.4922H14.6875V19.9219ZM25.3125 31.25H14.6875V26.6797H25.3125V31.25Z" fill="black"/>
<path d="M16.5625 29.2188C16.5625 29.5503 16.6942 29.8682 16.9286 30.1026C17.163 30.3371 17.481 30.4688 17.8125 30.4688C18.144 30.4688 18.462 30.3371 18.6964 30.1026C18.9308 29.8682 19.0625 29.5503 19.0625 29.2188C19.0625 28.8872 18.9308 28.5693 18.6964 28.3349C18.462 28.1004 18.144 27.9688 17.8125 27.9688C17.481 27.9688 17.163 28.1004 16.9286 28.3349C16.6942 28.5693 16.5625 28.8872 16.5625 29.2188ZM16.5625 22.2656C16.5625 22.5971 16.6942 22.9151 16.9286 23.1495C17.163 23.3839 17.481 23.5156 17.8125 23.5156C18.144 23.5156 18.462 23.3839 18.6964 23.1495C18.9308 22.9151 19.0625 22.5971 19.0625 22.2656C19.0625 21.9341 18.9308 21.6162 18.6964 21.3817C18.462 21.1473 18.144 21.0156 17.8125 21.0156C17.481 21.0156 17.163 21.1473 16.9286 21.3817C16.6942 21.6162 16.5625 21.9341 16.5625 22.2656Z" fill="black"/>
<path d="M31.6953 14.4102C29.9062 9.6875 25.3476 6.32812 20.0078 6.32812C14.668 6.32812 10.1094 9.68359 8.3203 14.4062C4.95702 15.293 2.48046 18.3672 2.49999 22.0156C2.52343 26.0937 5.68749 29.4102 9.67187 29.7656C9.85546 29.7813 10.0117 29.6367 10.0117 29.4531V27.0937C10.0117 26.9375 9.89452 26.8047 9.73827 26.7852C8.68359 26.6523 7.68749 26.1914 6.92187 25.4375C5.98437 24.5195 5.46874 23.2852 5.46874 21.9766C5.46874 20.8828 5.82421 19.8516 6.49218 18.9922C7.14452 18.1563 8.06249 17.5508 9.07421 17.2852L10.5547 16.8945L11.0976 15.4609C11.4336 14.5703 11.9023 13.7344 12.4922 12.9805C13.0742 12.2305 13.7656 11.5742 14.5391 11.0273C16.1445 9.89844 18.0351 9.30078 20.0078 9.30078C21.9805 9.30078 23.8711 9.89844 25.4766 11.0312C26.2539 11.5781 26.9414 12.2344 27.5234 12.9844C28.1133 13.7383 28.582 14.5742 28.918 15.4648L29.457 16.8945L30.9336 17.2852C33.0508 17.8477 34.5312 19.7734 34.5312 21.9727C34.5312 23.2852 34.0156 24.5156 33.0781 25.4336C32.3164 26.1836 31.3242 26.6484 30.2695 26.7812C30.1133 26.8008 30 26.9336 30 27.0898V29.4531C30 29.6367 30.1601 29.7813 30.3437 29.7656C34.3164 29.4063 37.4726 26.0937 37.5 22.0234C37.5234 18.375 35.0508 15.3008 31.6953 14.4102V14.4102Z" fill="black"/>
</svg>
