<svg width="40" height="40" viewBox="0 0 40 40" fill="none" xmlns="http://www.w3.org/2000/svg">
<g clip-path="url(#clip0_910_20)">
<path fill-rule="evenodd" clip-rule="evenodd" d="M25.4725 10.5021L10.8425 25.1321C7.9375 23.6296 4.4825 23.9096 2.2625 26.1271C0.552502 27.8396 -0.0249969 30.2921 0.490003 32.6596L4.2625 28.8946L7.6225 28.2396L11.6875 32.2621L10.9875 35.7246L7.25 39.4121C9.6175 39.9296 12.075 39.3571 13.7825 37.6471C16.005 35.4271 16.28 31.9721 14.7775 29.0646L29.4075 14.4346C32.315 15.9346 35.77 15.6546 37.99 13.4396C39.7 11.7246 40.2775 9.27457 39.76 6.90707L35.99 10.6696L32.6325 11.3271L28.5625 7.30457L29.265 3.84207L33.0025 0.152074C30.6375 -0.362926 28.18 0.207073 26.47 1.91957C24.2525 4.13957 23.975 7.59457 25.4725 10.5021V10.5021Z" fill="black"/>
<path fill-rule="evenodd" clip-rule="evenodd" d="M4.7325 9.165L9.3075 10.66L15.1475 16.5L16.5975 15.05L10.7575 9.215L9.165 4.535L1.4975 -0.0474955L0.0500018 1.4L4.7325 9.165V9.165Z" fill="black"/>
<path fill-rule="evenodd" clip-rule="evenodd" d="M21.8075 27.2323L33.805 39.2748C34.8125 40.2848 36.5825 40.1598 37.75 38.9798L39.0825 37.6498C40.25 36.4698 40.3825 34.7023 39.37 33.6873L27.3775 21.6448L21.8075 27.2323V27.2323Z" fill="black"/>
</g>
<defs>
<clipPath id="clip0_910_20">
<rect width="40" height="40" fill="white" transform="translate(40 40) rotate(-180)"/>
</clipPath>
</defs>
</svg>
