<svg width="40" height="40" viewBox="0 0 40 40" fill="none" xmlns="http://www.w3.org/2000/svg">
<path d="M32.3825 5C31.5138 5 30.3025 5.03875 29.0238 5.15625C26.465 5.395 23.5112 5.825 21.68 7.65625C20.1425 9.19375 16.9625 13.2762 14.0238 17.11C13.4425 17.8662 13.4663 17.8512 12.93 18.555L10.7813 18.4375C9.99493 18.3941 9.20954 18.538 8.48962 18.8572C7.7697 19.1764 7.1358 19.6619 6.64 20.2737L4.025 23.475L2.73625 25.1163L4.76625 25.5063L8.86875 26.3275L13.6725 31.1313L14.4938 35.2338L14.9238 37.265L16.5238 35.975L19.7275 33.3588C20.3394 32.863 20.8248 32.229 21.144 31.5091C21.4633 30.7892 21.6071 30.0038 21.5637 29.2175L21.4462 27.1075C22.1737 26.5575 22.15 26.57 22.9313 25.975C26.7737 23.0313 30.87 19.8713 32.3837 18.3588C34.2 16.5413 34.6062 13.5437 34.845 10.975C35.0837 8.4075 34.9625 6.21 34.9625 6.21L34.9225 5.07625L33.79 5.03875C33.79 5.03875 33.2513 5 32.3825 5ZM31.25 7.5C31.7475 7.5 32.1 7.52875 32.4612 7.53875C32.475 8.26625 32.505 9.02375 32.3438 10.7425C32.1238 13.11 31.4012 15.7475 30.5863 16.5625C29.4738 17.675 25.2337 21.05 21.4062 23.985C19.2631 25.6322 17.1147 27.2726 14.9613 28.9062L11.1325 25.0775C11.645 24.39 13.3988 21.9975 15.9763 18.6325C18.9063 14.815 22.29 10.5613 23.4375 9.41375C24.2925 8.56 26.9 7.8375 29.2575 7.6175C29.9196 7.54933 30.5844 7.51013 31.25 7.5V7.5ZM25.5463 11.9138C24.15 11.9138 23.0463 13.0563 23.0463 14.4525C23.0463 15.85 24.15 16.9925 25.5463 16.9925C26.2192 16.9909 26.8641 16.7229 27.34 16.2472C27.816 15.7715 28.0843 15.1267 28.0863 14.4537C28.0846 13.7806 27.8165 13.1355 27.3405 12.6595C26.8645 12.1835 26.2194 11.9154 25.5463 11.9138V11.9138ZM10.625 20.9375L11.0938 20.9763C10.3413 21.9725 9.11125 23.5688 8.945 23.7888L7.26625 23.4375L8.55375 21.875C8.80045 21.5663 9.11676 21.3204 9.47677 21.1575C9.83678 20.9945 10.2303 20.9191 10.625 20.9375ZM7.77375 27.4225C6.70375 28.4912 6.09375 29.9713 5.66375 31.21C5.235 32.4513 5.03875 33.4763 5.03875 33.4763L4.65 35.3125L6.48625 34.9612C6.48625 34.9612 7.48125 34.79 8.71125 34.375C9.9425 33.96 11.4225 33.345 12.54 32.2263L10.7825 30.4688C10.2263 31.025 9.1225 31.5137 8.12625 31.875C8.5075 30.835 9.06375 29.6537 9.5325 29.18L7.77375 27.4225ZM19.0237 28.9062L19.0625 29.375C19.0891 29.7668 19.0213 30.1592 18.8649 30.5193C18.7085 30.8795 18.4681 31.1969 18.1638 31.445L16.5625 32.735L16.2113 31.055C16.4313 30.8925 18.0275 29.6537 19.0237 28.9062V28.9062Z" fill="black"/>
</svg>
