<svg width="40" height="40" viewBox="0 0 40 40" fill="none" xmlns="http://www.w3.org/2000/svg">
<path d="M33.9062 28.5938H31.1601C30.9726 28.5938 30.7969 28.6759 30.6797 28.8204C30.4062 29.1524 30.1133 29.4727 29.8047 29.7774C28.5425 31.0408 27.0475 32.0477 25.4023 32.7423C23.6979 33.4622 21.8659 33.8315 20.0156 33.8282C18.1445 33.8282 16.332 33.461 14.6289 32.7423C12.9837 32.0477 11.4887 31.0408 10.2266 29.7774C8.96216 28.5183 7.95397 27.0259 7.25781 25.3829C6.53515 23.6798 6.17187 21.8712 6.17187 20.0001C6.17187 18.129 6.53906 16.3204 7.25781 14.6173C7.95312 12.9727 8.95312 11.4923 10.2266 10.2227C11.5 8.95319 12.9805 7.95319 14.6289 7.25787C16.332 6.53912 18.1445 6.17194 20.0156 6.17194C21.8867 6.17194 23.6992 6.53522 25.4023 7.25787C27.0508 7.95319 28.5312 8.95319 29.8047 10.2227C30.1133 10.5313 30.4023 10.8516 30.6797 11.1798C30.7969 11.3243 30.9765 11.4063 31.1601 11.4063H33.9062C34.1523 11.4063 34.3047 11.1329 34.1679 10.9258C31.1719 6.26959 25.9297 3.18756 19.9726 3.20318C10.6133 3.22662 3.10938 10.8243 3.20313 20.1719C3.29688 29.3712 10.7891 36.797 20.0156 36.797C25.957 36.797 31.1758 33.7188 34.1679 29.0743C34.3008 28.8673 34.1523 28.5938 33.9062 28.5938ZM37.3789 19.754L31.8359 15.379C31.6289 15.2149 31.3281 15.3633 31.3281 15.6251V18.5938H19.0625C18.8906 18.5938 18.75 18.7344 18.75 18.9063V21.0938C18.75 21.2657 18.8906 21.4063 19.0625 21.4063H31.3281V24.3751C31.3281 24.6368 31.6328 24.7852 31.8359 24.6212L37.3789 20.2462C37.4162 20.2169 37.4464 20.1796 37.4672 20.1369C37.488 20.0943 37.4988 20.0475 37.4988 20.0001C37.4988 19.9526 37.488 19.9058 37.4672 19.8632C37.4464 19.8206 37.4162 19.7832 37.3789 19.754V19.754Z" fill="black"/>
</svg>
