<svg width="40" height="40" viewBox="0 0 40 40" fill="none" xmlns="http://www.w3.org/2000/svg">
<path d="M18.9375 24.6723C20.6146 23.5582 21.8885 21.9338 22.5706 20.0394C23.2527 18.1451 23.3068 16.0814 22.725 14.1539C22.1431 12.2264 20.9561 10.5374 19.3397 9.33697C17.7233 8.13648 15.7634 7.48828 13.75 7.48828C11.7366 7.48828 9.77664 8.13648 8.16025 9.33697C6.54387 10.5374 5.3569 12.2264 4.77503 14.1539C4.19315 16.0814 4.24728 18.1451 4.9294 20.0394C5.61153 21.9338 6.8854 23.5582 8.56249 24.6723C5.70151 25.7243 3.23137 27.6274 1.48437 30.1254C1.3705 30.2573 1.28548 30.4116 1.23477 30.5783C1.18405 30.7451 1.16876 30.9206 1.18987 31.0936C1.21098 31.2665 1.26804 31.4332 1.35736 31.5828C1.44669 31.7325 1.56632 31.8618 1.70858 31.9625C1.85083 32.0631 2.01256 32.1329 2.18339 32.1674C2.35422 32.2019 2.53037 32.2003 2.70053 32.1626C2.8707 32.125 3.03111 32.0522 3.17148 31.9489C3.31185 31.8457 3.42907 31.7142 3.51562 31.5629C4.67073 29.9219 6.2035 28.5827 7.98468 27.6583C9.76586 26.7339 11.7432 26.2513 13.75 26.2513C15.7568 26.2513 17.7341 26.7339 19.5153 27.6583C21.2965 28.5827 22.8293 29.9219 23.9844 31.5629C24.0709 31.7142 24.1881 31.8457 24.3285 31.9489C24.4689 32.0522 24.6293 32.125 24.7995 32.1626C24.9696 32.2003 25.1458 32.2019 25.3166 32.1674C25.4874 32.1329 25.6492 32.0631 25.7914 31.9625C25.9337 31.8618 26.0533 31.7325 26.1426 31.5828C26.232 31.4332 26.289 31.2665 26.3101 31.0936C26.3312 30.9206 26.3159 30.7451 26.2652 30.5783C26.2145 30.4116 26.1295 30.2573 26.0156 30.1254C24.2686 27.6274 21.7985 25.7243 18.9375 24.6723V24.6723ZM6.87499 16.8754C6.87499 15.5157 7.27821 14.1864 8.03364 13.0559C8.78908 11.9253 9.8628 11.0441 11.119 10.5237C12.3753 10.0034 13.7576 9.86723 15.0912 10.1325C16.4249 10.3978 17.6499 11.0526 18.6114 12.014C19.5728 12.9755 20.2276 14.2005 20.4929 15.5342C20.7582 16.8678 20.622 18.2501 20.1017 19.5064C19.5813 20.7626 18.7001 21.8363 17.5695 22.5918C16.439 23.3472 15.1097 23.7504 13.75 23.7504C11.9266 23.7504 10.1779 23.0261 8.88864 21.7368C7.59932 20.4475 6.87499 18.6988 6.87499 16.8754ZM38.4531 31.8598C38.3202 31.9554 38.1696 32.0237 38.01 32.0606C37.8505 32.0975 37.6852 32.1022 37.5237 32.0746C37.3623 32.047 37.208 31.9875 37.0698 31.8997C36.9316 31.8118 36.8123 31.6973 36.7187 31.5629C35.5628 29.9227 34.0299 28.584 32.2489 27.6595C30.4679 26.7351 28.491 26.2518 26.4844 26.2504C26.1528 26.2504 25.8349 26.1187 25.6005 25.8843C25.3661 25.6499 25.2344 25.3319 25.2344 25.0004C25.2344 24.6689 25.3661 24.3509 25.6005 24.1165C25.8349 23.8821 26.1528 23.7504 26.4844 23.7504C28.3077 23.7504 30.0564 23.0261 31.3457 21.7368C32.635 20.4475 33.3594 18.6988 33.3594 16.8754C33.3594 15.052 32.635 13.3034 31.3457 12.014C30.0564 10.7247 28.3077 10.0004 26.4844 10.0004C25.8565 10.0046 25.2317 10.0886 24.625 10.2504C24.467 10.2957 24.3016 10.3094 24.1383 10.2908C23.975 10.2721 23.817 10.2214 23.6733 10.1415C23.5296 10.0617 23.4031 9.95435 23.301 9.82556C23.1988 9.69678 23.1231 9.54912 23.0781 9.39103C22.9909 9.07203 23.0319 8.73154 23.1925 8.44244C23.3531 8.15334 23.6205 7.93859 23.9375 7.84416C24.7681 7.62051 25.6242 7.50497 26.4844 7.50041C28.4999 7.49315 30.4639 8.13672 32.0842 9.33537C33.7046 10.534 34.8947 12.2237 35.4775 14.1531C36.0604 16.0825 36.0048 18.1485 35.3192 20.0438C34.6335 21.9391 33.3543 23.5624 31.6719 24.6723C34.5347 25.7286 37.0087 27.6304 38.7656 30.1254C38.9532 30.3972 39.0255 30.7321 38.967 31.057C38.9084 31.382 38.7237 31.6706 38.4531 31.8598V31.8598Z" fill="black"/>
</svg>
