<svg width="40" height="40" viewBox="0 0 40 40" fill="none" xmlns="http://www.w3.org/2000/svg">
<path d="M20 3.33301C10.81 3.33301 3.33334 10.8097 3.33334 19.9997C3.33334 29.1897 10.81 36.6663 20 36.6663C29.19 36.6663 36.6667 29.1897 36.6667 19.9997C36.6667 10.8097 29.19 3.33301 20 3.33301ZM33.2183 18.333H21.6667V6.78134C24.5997 7.15526 27.3256 8.49257 29.4164 10.5833C31.5071 12.6741 32.8444 15.4 33.2183 18.333V18.333ZM6.66668 19.9997C6.66668 13.213 11.7683 7.60634 18.3333 6.78134V19.9997C18.3383 20.254 18.4016 20.5037 18.5183 20.7297C18.5433 20.7797 18.555 20.8347 18.5867 20.8847L25.59 32.0897C23.8396 32.9067 21.9317 33.3311 20 33.333C12.6483 33.333 6.66668 27.3513 6.66668 19.9997ZM28.42 30.3263L23.0083 21.6663H33.2183C32.791 25.0623 31.0727 28.1634 28.42 30.3263V30.3263Z" fill="black"/>
</svg>
