<svg width="40" height="40" viewBox="0 0 40 40" fill="none" xmlns="http://www.w3.org/2000/svg">
<path fill-rule="evenodd" clip-rule="evenodd" d="M21.59 8.75C21.59 8.41848 21.4583 8.10054 21.2239 7.86612C20.9895 7.6317 20.6715 7.5 20.34 7.5H3.75C2.75544 7.5 1.80161 7.89509 1.09835 8.59835C0.395088 9.30161 0 10.2554 0 11.25L0 36.25C0 37.2446 0.395088 38.1984 1.09835 38.9017C1.80161 39.6049 2.75544 40 3.75 40H28.75C29.7446 40 30.6984 39.6049 31.4017 38.9017C32.1049 38.1984 32.5 37.2446 32.5 36.25V19.66C32.5 19.3285 32.3683 19.0105 32.1339 18.7761C31.8995 18.5417 31.5815 18.41 31.25 18.41C30.9185 18.41 30.6005 18.5417 30.3661 18.7761C30.1317 19.0105 30 19.3285 30 19.66L30 36.25C30 36.5815 29.8683 36.8995 29.6339 37.1339C29.3995 37.3683 29.0815 37.5 28.75 37.5H3.75C3.41848 37.5 3.10054 37.3683 2.86612 37.1339C2.6317 36.8995 2.5 36.5815 2.5 36.25L2.5 11.25C2.5 10.9185 2.6317 10.6005 2.86612 10.3661C3.10054 10.1317 3.41848 10 3.75 10L20.34 10C20.6715 10 20.9895 9.8683 21.2239 9.63388C21.4583 9.39946 21.59 9.08152 21.59 8.75Z" fill="black"/>
<path fill-rule="evenodd" clip-rule="evenodd" d="M40 1.25038C40 0.918861 39.8683 0.600918 39.6339 0.366497C39.3994 0.132077 39.0815 0.000381947 38.75 0.000381947L26.25 0.000381947C25.9185 0.000381947 25.6005 0.132077 25.3661 0.366497C25.1317 0.600918 25 0.918861 25 1.25038C25 1.5819 25.1317 1.89985 25.3661 2.13427C25.6005 2.36869 25.9185 2.50038 26.25 2.50038L35.7325 2.50038L15.365 22.8654C15.2488 22.9816 15.1566 23.1196 15.0937 23.2714C15.0308 23.4233 14.9984 23.586 14.9984 23.7504C14.9984 23.9147 15.0308 24.0775 15.0937 24.2293C15.1566 24.3812 15.2488 24.5192 15.365 24.6354C15.4812 24.7516 15.6192 24.8438 15.771 24.9067C15.9229 24.9696 16.0856 25.002 16.25 25.002C16.4144 25.002 16.5771 24.9696 16.729 24.9067C16.8808 24.8438 17.0188 24.7516 17.135 24.6354L37.5 4.26788V13.7504C37.5 14.0819 37.6317 14.3998 37.8661 14.6343C38.1005 14.8687 38.4185 15.0004 38.75 15.0004C39.0815 15.0004 39.3994 14.8687 39.6339 14.6343C39.8683 14.3998 40 14.0819 40 13.7504V1.25038Z" fill="black"/>
</svg>
